<?xml version="1.0" encoding="UTF-8"?>
<svg width="1600" height="800" viewBox="0 0 1600 800" fill="none" xmlns="http://www.w3.org/2000/svg">
  <!-- Gradients -->
  <defs>
    <linearGradient id="g1" x1="0" y1="0" x2="1" y2="1">
      <stop offset="0%" stop-color="#a78bfa"/>
      <stop offset="100%" stop-color="#f0abfc"/>
    </linearGradient>
    <linearGradient id="g2" x1="0" y1="0" x2="0" y2="1">
      <stop offset="0%" stop-color="#8b5cf6"/>
      <stop offset="100%" stop-color="#f472b6"/>
    </linearGradient>
    <radialGradient id="glow" cx="50%" cy="65%" r="60%">
      <stop offset="0%" stop-color="#a78bfa" stop-opacity="0.40"/>
      <stop offset="60%" stop-color="#a78bfa" stop-opacity="0.10"/>
      <stop offset="100%" stop-color="#a78bfa" stop-opacity="0"/>
    </radialGradient>
    <filter id="softShadow" x="-20%" y="-20%" width="140%" height="140%">
      <feDropShadow dx="0" dy="8" stdDeviation="12" flood-color="#000000" flood-opacity="0.35"/>
    </filter>
  </defs>

  <!-- top ambient glow (works nicely on dark backgrounds) -->
  <ellipse cx="800" cy="520" rx="700" ry="360" fill="url(#glow)" />

  <!-- horizon arc (like Evolvion's swoop) -->
  <path d="M-50 640 Q 800 520 1650 640 L1650 800 L-50 800 Z" fill="url(#g1)" opacity="0.25"/>
  <path d="M-50 660 Q 800 540 1650 660 L1650 800 L-50 800 Z" fill="url(#g2)" opacity="0.25"/>

  <!-- abstract sparkles -->
  <g opacity="0.55">
    <circle cx="240" cy="160" r="2.5" fill="#e9d5ff"/>
    <circle cx="520" cy="120" r="2" fill="#f5d0fe"/>
    <circle cx="1020" cy="150" r="2.5" fill="#e9d5ff"/>
    <circle cx="1320" cy="190" r="2" fill="#f5d0fe"/>
    <circle cx="900" cy="90" r="2" fill="#e9d5ff"/>
    <circle cx="300" cy="260" r="2" fill="#f5d0fe"/>
  </g>

  <!-- floating UI cards -->
  <g filter="url(#softShadow)">
    <!-- analytics card -->
    <rect x="250" y="270" rx="16" ry="16" width="260" height="160" fill="rgba(20,20,30,0.9)" stroke="url(#g1)"/>
    <path d="M280 370 C330 320 360 420 410 340" stroke="url(#g2)" stroke-width="6" fill="none"/>
    <circle cx="410" cy="340" r="7" fill="#f0abfc"/>
    <circle cx="280" cy="370" r="7" fill="#8b5cf6"/>
    <rect x="270" y="300" width="180" height="12" rx="6" fill="#f1e8ff" opacity="0.25"/>
    <rect x="270" y="320" width="140" height="12" rx="6" fill="#f1e8ff" opacity="0.15"/>
  </g>

  <!-- chat bubble -->
  <g filter="url(#softShadow)">
    <rect x="1100" y="260" rx="16" ry="16" width="220" height="90" fill="rgba(20,20,30,0.9)" stroke="url(#g1)"/>
    <circle cx="1125" cy="305" r="8" fill="#a78bfa"/>
    <rect x="1145" y="292" width="150" height="12" rx="6" fill="#f1e8ff" opacity="0.8"/>
    <rect x="1145" y="312" width="120" height="10" rx="5" fill="#f1e8ff" opacity="0.5"/>
  </g>

  <!-- people + devices: simplified, friendly shapes -->
  <!-- person left -->
  <g transform="translate(540,400)" filter="url(#softShadow)">
    <circle cx="0" cy="-40" r="28" fill="#f0abfc"/>
    <rect x="-26" y="-12" width="52" height="70" rx="18" fill="rgba(20,20,30,0.95)" stroke="#f0abfc" stroke-opacity="0.7"/>
    <!-- laptop -->
    <rect x="-90" y="30" width="120" height="70" rx="14" fill="rgba(30,30,42,0.95)" stroke="url(#g1)"/>
    <rect x="-75" y="45" width="90" height="10" rx="5" fill="#f1e8ff" opacity="0.15"/>
    <rect x="-75" y="60" width="70" height="10" rx="5" fill="#f1e8ff" opacity="0.15"/>
  </g>

  <!-- person right -->
  <g transform="translate(980,400)" filter="url(#softShadow)">
    <circle cx="0" cy="-40" r="28" fill="#8b5cf6"/>
    <rect x="-26" y="-12" width="52" height="70" rx="18" fill="rgba(20,20,30,0.95)" stroke="#8b5cf6" stroke-opacity="0.7"/>
    <!-- tablet -->
    <rect x="20" y="30" width="110" height="70" rx="12" fill="rgba(30,30,42,0.95)" stroke="url(#g2)"/>
    <rect x="35" y="45" width="80" height="12" rx="6" fill="#f1e8ff" opacity="0.15"/>
    <rect x="35" y="62" width="65" height="10" rx="5" fill="#f1e8ff" opacity="0.15"/>
  </g>

  <!-- central desktop with growth chart -->
  <g transform="translate(760,430)" filter="url(#softShadow)">
    <rect x="-150" y="0" width="300" height="170" rx="18" fill="rgba(26,26,40,0.98)" stroke="url(#g1)"/>
    <!-- chart -->
    <path d="M-120 120 L-70 90 L-20 105 L30 70 L80 85 L120 40" stroke="url(#g2)" stroke-width="6" fill="none"/>
    <circle cx="120" cy="40" r="7" fill="#f0abfc"/>
    <rect x="-120" y="24" width="140" height="12" rx="6" fill="#f1e8ff" opacity="0.25"/>
    <rect x="-120" y="44" width="110" height="10" rx="5" fill="#f1e8ff" opacity="0.18"/>
    <rect x="130" y="-22" width="26" height="26" rx="8" fill="#8b5cf6" opacity="0.8"/>
  </g>

  <!-- connection lines (collaboration) -->
  <path d="M610 420 C 700 380, 860 380, 950 420" stroke="url(#g1)" stroke-width="3" opacity="0.6" fill="none" stroke-dasharray="6 10"/>
  <path d="M610 470 C 700 500, 860 500, 950 470" stroke="url(#g2)" stroke-width="3" opacity="0.6" fill="none" stroke-dasharray="6 10"/>

  <!-- invisible background rect to make sure the SVG has click-through transparency -->
  <rect x="0" y="0" width="1600" height="800" fill="transparent" pointer-events="none"/>
</svg>
